<mxfile host="65bd71144e">
    <diagram id="Patient_Registration_DFD_TOBE" name="Registration_DFD_TOBE">
        <mxGraphModel dx="515" dy="807" grid="1" gridSize="10" guides="1" tooltips="1" connect="1" arrows="1" fold="1" page="1" pageScale="1" pageWidth="827" pageHeight="1169" math="0" shadow="0">
            <root>
                <mxCell id="0"/>
                <mxCell id="1" parent="0"/>
                <mxCell id="2" value="Форма регистрации пациента&#xa;(TLS + 2FA)" style="rounded=1;whiteSpace=wrap;html=1;fillColor=#dae8fc;strokeColor=#6c8ebf;" parent="1" vertex="1">
                    <mxGeometry x="50" y="190" width="120" height="70" as="geometry"/>
                </mxCell>
                <mxCell id="4" value="Создание&#xa;медицинской карты&#xa;(Шифрование + Тегирование)" style="rounded=1;whiteSpace=wrap;html=1;fillColor=#dae8fc;strokeColor=#6c8ebf;arcSize=50;" parent="1" vertex="1">
                    <mxGeometry x="420" y="170" width="120" height="120" as="geometry"/>
                </mxCell>
                <mxCell id="5" value="Защищенное хранилище&#xa;(TDE + Аудит)" style="shape=cylinder3;whiteSpace=wrap;html=1;boundedLbl=1;backgroundOutline=1;size=15;fillColor=#fff2cc;strokeColor=#d6b656;" parent="1" vertex="1">
                    <mxGeometry x="600" y="320" width="80" height="100" as="geometry"/>
                </mxCell>
                <mxCell id="6" value="Зашифрованные персональные данные&#xa;(AES-256)" style="endArrow=classic;html=1;exitX=1;exitY=0.5;exitDx=0;exitDy=0;entryX=0;entryY=0.5;entryDx=0;entryDy=0;" parent="1" source="2" target="4" edge="1">
                    <mxGeometry width="50" height="50" relative="1" as="geometry">
                        <mxPoint x="320" y="190" as="targetPoint"/>
                    </mxGeometry>
                </mxCell>
                <mxCell id="eLMpMQz90m2vMFddUnMd-11" style="edgeStyle=none;html=1;entryX=0.75;entryY=1;entryDx=0;entryDy=0;" parent="1" source="7" target="2" edge="1">
                    <mxGeometry relative="1" as="geometry"/>
                </mxCell>
                <mxCell id="7" value="Администратор&#xa;(RBAC + 2FA)" style="shape=actor;whiteSpace=wrap;html=1;fillColor=#d5e8d4;strokeColor=#82b366;" parent="1" vertex="1">
                    <mxGeometry x="160" y="330" width="40" height="60" as="geometry"/>
                </mxCell>
                <mxCell id="eLMpMQz90m2vMFddUnMd-10" style="edgeStyle=none;html=1;" parent="1" source="8" target="2" edge="1">
                    <mxGeometry relative="1" as="geometry"/>
                </mxCell>
                <mxCell id="8" value="Пациент&#xa;(Аутентификация)" style="shape=actor;whiteSpace=wrap;html=1;fillColor=#d5e8d4;strokeColor=#82b366;" parent="1" vertex="1">
                    <mxGeometry x="60" y="330" width="40" height="60" as="geometry"/>
                </mxCell>
                <mxCell id="9" value="SIEM" style="shape=mxgraph.cisco.servers.storage_server;html=1;dashed=0;fillColor=#FAFAFA;strokeColor=#005073;strokeWidth=2;verticalLabelPosition=bottom;verticalAlign=top;align=center;html=1;fontSize=10;spacingTop=0;outlineConnect=0;fontColor=#005073;" parent="1" vertex="1">
                    <mxGeometry x="690" y="205" width="40" height="40" as="geometry"/>
                </mxCell>
                <mxCell id="10" value="Аудит действий" style="endArrow=classic;html=1;exitX=1;exitY=0.5;exitDx=0;exitDy=0;entryX=0;entryY=0.5;entryDx=0;entryDy=0;" parent="1" source="4" target="9" edge="1">
                    <mxGeometry width="50" height="50" relative="1" as="geometry"/>
                </mxCell>
                <mxCell id="eLMpMQz90m2vMFddUnMd-13" style="edgeStyle=orthogonalEdgeStyle;html=1;entryX=0;entryY=0.5;entryDx=0;entryDy=0;entryPerimeter=0;curved=1;" parent="1" source="4" target="5" edge="1">
                    <mxGeometry relative="1" as="geometry">
                        <Array as="points">
                            <mxPoint x="480" y="300"/>
                            <mxPoint x="550" y="300"/>
                            <mxPoint x="550" y="370"/>
                        </Array>
                    </mxGeometry>
                </mxCell>
            </root>
        </mxGraphModel>
    </diagram>
    <diagram id="Medical_Data_Processing_DFD_TOBE" name="Appointment_DFD_TOBE">
        <mxGraphModel dx="669" dy="807" grid="1" gridSize="10" guides="1" tooltips="1" connect="1" arrows="1" fold="1" page="1" pageScale="1" pageWidth="827" pageHeight="1169" math="0" shadow="0">
            <root>
                <mxCell id="0"/>
                <mxCell id="1" parent="0"/>
                <mxCell id="2" value="Приём пациента&#xa;(RBAC + Аудит)" style="rounded=1;whiteSpace=wrap;html=1;fillColor=#dae8fc;strokeColor=#6c8ebf;arcSize=50;" parent="1" vertex="1">
                    <mxGeometry x="10" y="180" width="120" height="120" as="geometry"/>
                </mxCell>
                <mxCell id="ThurI2AhjfvF_iFqIq_8-12" style="edgeStyle=orthogonalEdgeStyle;html=1;curved=1;exitX=0.5;exitY=1;exitDx=0;exitDy=0;" edge="1" parent="1" source="3" target="5">
                    <mxGeometry relative="1" as="geometry"/>
                </mxCell>
                <mxCell id="ThurI2AhjfvF_iFqIq_8-15" style="edgeStyle=orthogonalEdgeStyle;html=1;entryX=0;entryY=0.5;entryDx=0;entryDy=0;exitX=0.5;exitY=0;exitDx=0;exitDy=0;curved=1;" edge="1" parent="1" source="3" target="8">
                    <mxGeometry relative="1" as="geometry"/>
                </mxCell>
                <mxCell id="ThurI2AhjfvF_iFqIq_8-17" value="Обезличенные данные&lt;div&gt;пациента&lt;/div&gt;" style="edgeLabel;html=1;align=center;verticalAlign=middle;resizable=0;points=[];" vertex="1" connectable="0" parent="ThurI2AhjfvF_iFqIq_8-15">
                    <mxGeometry x="0.033" y="-22" relative="1" as="geometry">
                        <mxPoint as="offset"/>
                    </mxGeometry>
                </mxCell>
                <mxCell id="3" value="Запись медицинских&#xa;данных&#xa;(Шифрование + Тегирование)" style="rounded=1;whiteSpace=wrap;html=1;fillColor=#dae8fc;strokeColor=#6c8ebf;arcSize=50;" parent="1" vertex="1">
                    <mxGeometry x="340" y="182.5" width="120" height="115" as="geometry"/>
                </mxCell>
                <mxCell id="4" value="Обработка&#xa;анализов&#xa;(API + TLS)" style="rounded=1;whiteSpace=wrap;html=1;fillColor=#dae8fc;strokeColor=#6c8ebf;arcSize=50;" parent="1" vertex="1">
                    <mxGeometry x="707" y="187.5" width="120" height="110" as="geometry"/>
                </mxCell>
                <mxCell id="5" value="Защищенное хранилище&#xa;медицинских карт&#xa;(TDE + Аудит)" style="shape=cylinder3;whiteSpace=wrap;html=1;boundedLbl=1;backgroundOutline=1;size=15;fillColor=#fff2cc;strokeColor=#d6b656;" parent="1" vertex="1">
                    <mxGeometry x="470" y="440" width="80" height="100" as="geometry"/>
                </mxCell>
                <mxCell id="6" value="Зашифрованные данные приёма&#xa;(AES-256)" style="endArrow=classic;html=1;exitX=1;exitY=0.5;exitDx=0;exitDy=0;entryX=0;entryY=0.5;entryDx=0;entryDy=0;" parent="1" source="2" target="3" edge="1">
                    <mxGeometry width="50" height="50" relative="1" as="geometry"/>
                </mxCell>
                <mxCell id="7" value="Зашифрованные результаты анализов&#xa;(API + TLS)" style="endArrow=classic;html=1;exitX=1;exitY=0.5;exitDx=0;exitDy=0;entryX=0;entryY=0.5;entryDx=0;entryDy=0;" parent="1" source="3" target="4" edge="1">
                    <mxGeometry width="50" height="50" relative="1" as="geometry"/>
                </mxCell>
                <mxCell id="8" value="Лаборатория&#xa;(API + TLS)" style="rounded=1;whiteSpace=wrap;html=1;fillColor=#d5e8d4;strokeColor=#82b366;arcSize=13;" parent="1" vertex="1">
                    <mxGeometry x="540" y="70" width="120" height="50" as="geometry"/>
                </mxCell>
                <mxCell id="9" value="Пациент&#xa;(Аутентификация)" style="shape=actor;whiteSpace=wrap;html=1;fillColor=#d5e8d4;strokeColor=#82b366;" parent="1" vertex="1">
                    <mxGeometry x="40" y="350" width="40" height="60" as="geometry"/>
                </mxCell>
                <mxCell id="10" value="Мед.работник&#xa;(RBAC + 2FA)" style="shape=actor;whiteSpace=wrap;html=1;fillColor=#d5e8d4;strokeColor=#82b366;" parent="1" vertex="1">
                    <mxGeometry x="180" y="350" width="40" height="60" as="geometry"/>
                </mxCell>
                <mxCell id="11" value="SIEM" style="shape=mxgraph.cisco.servers.storage_server;html=1;dashed=0;fillColor=#FAFAFA;strokeColor=#005073;strokeWidth=2;verticalLabelPosition=bottom;verticalAlign=top;align=center;html=1;fontSize=10;spacingTop=0;outlineConnect=0;fontColor=#005073;" parent="1" vertex="1">
                    <mxGeometry x="680" y="390" width="40" height="40" as="geometry"/>
                </mxCell>
                <mxCell id="12" value="Аудит действий" style="endArrow=classic;html=1;exitX=1;exitY=0.5;exitDx=0;exitDy=0;entryX=0;entryY=0.5;entryDx=0;entryDy=0;" parent="1" source="3" target="11" edge="1">
                    <mxGeometry width="50" height="50" relative="1" as="geometry"/>
                </mxCell>
                <mxCell id="ThurI2AhjfvF_iFqIq_8-13" style="edgeStyle=none;html=1;entryX=0.433;entryY=1.008;entryDx=0;entryDy=0;entryPerimeter=0;" edge="1" parent="1" source="9" target="2">
                    <mxGeometry relative="1" as="geometry"/>
                </mxCell>
                <mxCell id="ThurI2AhjfvF_iFqIq_8-14" style="edgeStyle=orthogonalEdgeStyle;html=1;entryX=0.808;entryY=0.9;entryDx=0;entryDy=0;entryPerimeter=0;curved=1;exitX=0.5;exitY=0;exitDx=0;exitDy=0;" edge="1" parent="1" source="10" target="2">
                    <mxGeometry relative="1" as="geometry"/>
                </mxCell>
                <mxCell id="ThurI2AhjfvF_iFqIq_8-16" style="edgeStyle=orthogonalEdgeStyle;html=1;entryX=0.892;entryY=0.239;entryDx=0;entryDy=0;entryPerimeter=0;curved=1;exitX=0.5;exitY=1;exitDx=0;exitDy=0;" edge="1" parent="1" source="8" target="3">
                    <mxGeometry relative="1" as="geometry"/>
                </mxCell>
                <mxCell id="ThurI2AhjfvF_iFqIq_8-18" value="Зашифрованные результаты&lt;div&gt;анализов&lt;/div&gt;" style="edgeLabel;html=1;align=center;verticalAlign=middle;resizable=0;points=[];" vertex="1" connectable="0" parent="ThurI2AhjfvF_iFqIq_8-16">
                    <mxGeometry x="-0.0592" y="-2" relative="1" as="geometry">
                        <mxPoint as="offset"/>
                    </mxGeometry>
                </mxCell>
            </root>
        </mxGraphModel>
    </diagram>
    <diagram id="Payment_Processing_DFD_TOBE" name="Payment_DFD_TOBE">
        <mxGraphModel dx="669" dy="807" grid="1" gridSize="10" guides="1" tooltips="1" connect="1" arrows="1" fold="1" page="1" pageScale="1" pageWidth="827" pageHeight="1169" math="0" shadow="0">
            <root>
                <mxCell id="0"/>
                <mxCell id="1" parent="0"/>
                <mxCell id="2" value="Формирование&#xa;счета&#xa;(Шифрование)" style="rounded=1;whiteSpace=wrap;html=1;fillColor=#dae8fc;strokeColor=#6c8ebf;arcSize=50;" parent="1" vertex="1">
                    <mxGeometry x="30" y="240" width="120" height="120" as="geometry"/>
                </mxCell>
                <mxCell id="GxCsf2ZPLUfa82QRBt_q-14" style="edgeStyle=none;html=1;exitX=0.5;exitY=0;exitDx=0;exitDy=0;entryX=0.5;entryY=1;entryDx=0;entryDy=0;" edge="1" parent="1" source="3" target="8">
                    <mxGeometry relative="1" as="geometry"/>
                </mxCell>
                <mxCell id="3" value="Обработка&#xa;платежа&#xa;(PCI DSS)" style="rounded=1;whiteSpace=wrap;html=1;fillColor=#dae8fc;strokeColor=#6c8ebf;arcSize=50;" parent="1" vertex="1">
                    <mxGeometry x="290" y="180" width="120" height="120" as="geometry"/>
                </mxCell>
                <mxCell id="4" value="Учёт в 1С&#xa;(Шифрование + Аудит)" style="rounded=1;whiteSpace=wrap;html=1;fillColor=#dae8fc;strokeColor=#6c8ebf;arcSize=50;" parent="1" vertex="1">
                    <mxGeometry x="610" y="240" width="120" height="120" as="geometry"/>
                </mxCell>
                <mxCell id="5" value="1С Бухгалтерия&#xa;(TDE + Аудит)" style="shape=cylinder3;whiteSpace=wrap;html=1;boundedLbl=1;backgroundOutline=1;size=15;fillColor=#fff2cc;strokeColor=#d6b656;" parent="1" vertex="1">
                    <mxGeometry x="800" y="430" width="80" height="100" as="geometry"/>
                </mxCell>
                <mxCell id="6" value="Зашифрованные данные об услугах&#xa;(AES-256)" style="endArrow=classic;html=1;exitX=1;exitY=0.5;exitDx=0;exitDy=0;entryX=0;entryY=0.5;entryDx=0;entryDy=0;" parent="1" source="2" target="3" edge="1">
                    <mxGeometry width="50" height="50" relative="1" as="geometry"/>
                </mxCell>
                <mxCell id="7" value="Зашифрованные данные платежа&#xa;(PCI DSS)" style="endArrow=classic;html=1;exitX=1;exitY=0.5;exitDx=0;exitDy=0;entryX=0;entryY=0.5;entryDx=0;entryDy=0;" parent="1" source="3" target="4" edge="1">
                    <mxGeometry width="50" height="50" relative="1" as="geometry"/>
                </mxCell>
                <mxCell id="GxCsf2ZPLUfa82QRBt_q-15" style="edgeStyle=none;html=1;exitX=1;exitY=0.5;exitDx=0;exitDy=0;entryX=0;entryY=0.5;entryDx=0;entryDy=0;" edge="1" parent="1" source="8" target="9">
                    <mxGeometry relative="1" as="geometry"/>
                </mxCell>
                <mxCell id="GxCsf2ZPLUfa82QRBt_q-16" value="Обезличенные данные" style="edgeLabel;html=1;align=center;verticalAlign=middle;resizable=0;points=[];" vertex="1" connectable="0" parent="GxCsf2ZPLUfa82QRBt_q-15">
                    <mxGeometry x="0.1636" y="-4" relative="1" as="geometry">
                        <mxPoint as="offset"/>
                    </mxGeometry>
                </mxCell>
                <mxCell id="8" value="ККМ" style="rounded=1;whiteSpace=wrap;html=1;fillColor=#dae8fc;strokeColor=#6c8ebf;arcSize=21;" parent="1" vertex="1">
                    <mxGeometry x="290" y="50" width="120" height="60" as="geometry"/>
                </mxCell>
                <mxCell id="9" value="ОФД" style="rounded=1;whiteSpace=wrap;html=1;fillColor=#d5e8d4;strokeColor=#82b366;arcSize=21;" parent="1" vertex="1">
                    <mxGeometry x="630" y="50" width="120" height="60" as="geometry"/>
                </mxCell>
                <mxCell id="GxCsf2ZPLUfa82QRBt_q-13" style="edgeStyle=none;html=1;" edge="1" parent="1" source="10" target="2">
                    <mxGeometry relative="1" as="geometry"/>
                </mxCell>
                <mxCell id="GxCsf2ZPLUfa82QRBt_q-18" value="Данные платежа" style="edgeLabel;html=1;align=center;verticalAlign=middle;resizable=0;points=[];" vertex="1" connectable="0" parent="GxCsf2ZPLUfa82QRBt_q-13">
                    <mxGeometry x="0.0833" y="1" relative="1" as="geometry">
                        <mxPoint as="offset"/>
                    </mxGeometry>
                </mxCell>
                <mxCell id="10" value="Кассир&#xa;(RBAC + 2FA)" style="shape=actor;whiteSpace=wrap;html=1;fillColor=#d5e8d4;strokeColor=#82b366;" parent="1" vertex="1">
                    <mxGeometry x="70" y="480" width="40" height="60" as="geometry"/>
                </mxCell>
                <mxCell id="GxCsf2ZPLUfa82QRBt_q-21" style="edgeStyle=none;html=1;" edge="1" parent="1" source="11" target="4">
                    <mxGeometry relative="1" as="geometry"/>
                </mxCell>
                <mxCell id="JQ7kIwwTAIw0UbK-aV2J-17" value="Зашифрованные&lt;br&gt;данные" style="edgeLabel;html=1;align=center;verticalAlign=middle;resizable=0;points=[];" vertex="1" connectable="0" parent="GxCsf2ZPLUfa82QRBt_q-21">
                    <mxGeometry x="0.1247" y="-4" relative="1" as="geometry">
                        <mxPoint as="offset"/>
                    </mxGeometry>
                </mxCell>
                <mxCell id="11" value="Бухгалтер&#xa;(RBAC + 2FA)" style="shape=actor;whiteSpace=wrap;html=1;fillColor=#d5e8d4;strokeColor=#82b366;" parent="1" vertex="1">
                    <mxGeometry x="640" y="460" width="40" height="60" as="geometry"/>
                </mxCell>
                <mxCell id="12" value="SIEM" style="shape=mxgraph.cisco.servers.storage_server;html=1;dashed=0;fillColor=#FAFAFA;strokeColor=#005073;strokeWidth=2;verticalLabelPosition=bottom;verticalAlign=top;align=center;html=1;fontSize=10;spacingTop=0;outlineConnect=0;fontColor=#005073;" parent="1" vertex="1">
                    <mxGeometry x="880" y="180" width="40" height="40" as="geometry"/>
                </mxCell>
                <mxCell id="13" value="Аудит финансовых операций" style="endArrow=classic;html=1;exitX=1;exitY=0.5;exitDx=0;exitDy=0;entryX=0;entryY=0.5;entryDx=0;entryDy=0;" parent="1" source="4" target="12" edge="1">
                    <mxGeometry width="50" height="50" relative="1" as="geometry"/>
                </mxCell>
                <mxCell id="GxCsf2ZPLUfa82QRBt_q-20" value="Работник склада&lt;br&gt;(RBAC + 2FA)" style="shape=actor;whiteSpace=wrap;html=1;fillColor=#d5e8d4;strokeColor=#82b366;" vertex="1" parent="1">
                    <mxGeometry x="440" y="430" width="40" height="60" as="geometry"/>
                </mxCell>
                <mxCell id="JQ7kIwwTAIw0UbK-aV2J-13" style="edgeStyle=none;html=1;entryX=0;entryY=0.5;entryDx=0;entryDy=0;entryPerimeter=0;" edge="1" parent="1" source="4" target="5">
                    <mxGeometry relative="1" as="geometry"/>
                </mxCell>
                <mxCell id="JQ7kIwwTAIw0UbK-aV2J-15" style="edgeStyle=none;html=1;entryX=0.167;entryY=0.825;entryDx=0;entryDy=0;entryPerimeter=0;" edge="1" parent="1" source="GxCsf2ZPLUfa82QRBt_q-20" target="4">
                    <mxGeometry relative="1" as="geometry"/>
                </mxCell>
                <mxCell id="JQ7kIwwTAIw0UbK-aV2J-16" value="Зашифрованные&lt;br&gt;данные" style="edgeLabel;html=1;align=center;verticalAlign=middle;resizable=0;points=[];" vertex="1" connectable="0" parent="JQ7kIwwTAIw0UbK-aV2J-15">
                    <mxGeometry x="-0.1998" relative="1" as="geometry">
                        <mxPoint as="offset"/>
                    </mxGeometry>
                </mxCell>
            </root>
        </mxGraphModel>
    </diagram>
</mxfile>